<svg width="556" height="575" viewBox="0 0 556 575" fill="none" xmlns="http://www.w3.org/2000/svg">
<circle cx="409.5" cy="109.728" r="59" stroke="#E7E7E7" stroke-opacity="0.8"/>
<circle cx="409.5" cy="312.728" r="59" stroke="#E7E7E7" stroke-opacity="0.8"/>
<circle cx="496.5" cy="261.728" r="59" stroke="#E7E7E7" stroke-opacity="0.8"/>
<circle cx="496.5" cy="160.728" r="59" stroke="#E7E7E7" stroke-opacity="0.8"/>
<path d="M380.5 261.728C380.5 294.317 354.305 320.728 322 320.728C289.695 320.728 263.5 294.317 263.5 261.728C263.5 229.139 289.695 202.728 322 202.728C354.305 202.728 380.5 229.139 380.5 261.728Z" stroke="#E7E7E7" stroke-opacity="0.8"/>
<path d="M380.5 160.728C380.5 193.317 354.305 219.728 322 219.728C289.695 219.728 263.5 193.317 263.5 160.728C263.5 128.139 289.695 101.728 322 101.728C354.305 101.728 380.5 128.139 380.5 160.728Z" stroke="#E7E7E7" stroke-opacity="0.8"/>
<path d="M468.5 211.228C468.5 243.533 442.089 269.728 409.5 269.728C376.911 269.728 350.5 243.533 350.5 211.228C350.5 178.923 376.911 152.728 409.5 152.728C442.089 152.728 468.5 178.923 468.5 211.228Z" stroke="#E7E7E7" stroke-opacity="0.8"/>
<circle cx="234.5" cy="311.728" r="59" stroke="#E7E7E7" stroke-opacity="0.8"/>
<circle cx="234.5" cy="514.728" r="59" stroke="#E7E7E7" stroke-opacity="0.8"/>
<circle cx="321.5" cy="463.728" r="59" stroke="#E7E7E7" stroke-opacity="0.8"/>
<circle cx="321.5" cy="362.728" r="59" stroke="#E7E7E7" stroke-opacity="0.8"/>
<path d="M205.5 463.728C205.5 496.317 179.305 522.728 147 522.728C114.695 522.728 88.5 496.317 88.5 463.728C88.5 431.139 114.695 404.728 147 404.728C179.305 404.728 205.5 431.139 205.5 463.728Z" stroke="#E7E7E7" stroke-opacity="0.8"/>
<path d="M205.5 362.728C205.5 395.317 179.305 421.728 147 421.728C114.695 421.728 88.5 395.317 88.5 362.728C88.5 330.139 114.695 303.728 147 303.728C179.305 303.728 205.5 330.139 205.5 362.728Z" stroke="#E7E7E7" stroke-opacity="0.8"/>
<path d="M293.5 413.228C293.5 445.533 267.089 471.728 234.5 471.728C201.911 471.728 175.5 445.533 175.5 413.228C175.5 380.923 201.911 354.728 234.5 354.728C267.089 354.728 293.5 380.923 293.5 413.228Z" stroke="#E7E7E7" stroke-opacity="0.8"/>
<circle cx="146.5" cy="59.7281" r="59" stroke="#E7E7E7" stroke-opacity="0.8"/>
<circle cx="146.5" cy="262.728" r="59" stroke="#E7E7E7" stroke-opacity="0.8"/>
<circle cx="233.5" cy="211.728" r="59" stroke="#E7E7E7" stroke-opacity="0.8"/>
<circle cx="233.5" cy="110.728" r="59" stroke="#E7E7E7" stroke-opacity="0.8"/>
<path d="M117.5 211.728C117.5 244.317 91.3047 270.728 59 270.728C26.6953 270.728 0.5 244.317 0.5 211.728C0.5 179.139 26.6953 152.728 59 152.728C91.3047 152.728 117.5 179.139 117.5 211.728Z" stroke="#E7E7E7" stroke-opacity="0.8"/>
<path d="M117.5 110.728C117.5 143.317 91.3047 169.728 59 169.728C26.6953 169.728 0.5 143.317 0.5 110.728C0.5 78.1394 26.6953 51.7281 59 51.7281C91.3047 51.7281 117.5 78.1394 117.5 110.728Z" stroke="#E7E7E7" stroke-opacity="0.8"/>
<path d="M205.5 161.228C205.5 193.533 179.089 219.728 146.5 219.728C113.911 219.728 87.5 193.533 87.5 161.228C87.5 128.923 113.911 102.728 146.5 102.728C179.089 102.728 205.5 128.923 205.5 161.228Z" stroke="#E7E7E7" stroke-opacity="0.8"/>
</svg>
