<svg width="1411" height="1538" viewBox="0 0 1411 1538" fill="none" xmlns="http://www.w3.org/2000/svg">
<circle cx="825.501" cy="464.5" r="59" transform="rotate(180 825.501 464.5)" stroke="#E7E7E7" stroke-opacity="0.8"/>
<circle cx="825.501" cy="261.5" r="59" transform="rotate(180 825.501 261.5)" stroke="#E7E7E7" stroke-opacity="0.8"/>
<circle cx="738.501" cy="312.5" r="59" transform="rotate(180 738.501 312.5)" stroke="#E7E7E7" stroke-opacity="0.8"/>
<circle cx="738.501" cy="413.5" r="59" transform="rotate(180 738.501 413.5)" stroke="#E7E7E7" stroke-opacity="0.8"/>
<path d="M854.501 312.5C854.501 279.911 880.696 253.5 913.001 253.5C945.305 253.5 971.501 279.911 971.501 312.5C971.501 345.089 945.305 371.5 913.001 371.5C880.696 371.5 854.501 345.089 854.501 312.5Z" stroke="#E7E7E7" stroke-opacity="0.8"/>
<path d="M854.501 413.5C854.501 380.911 880.696 354.5 913.001 354.5C945.305 354.5 971.501 380.911 971.501 413.5C971.501 446.089 945.305 472.5 913.001 472.5C880.696 472.5 854.501 446.089 854.501 413.5Z" stroke="#E7E7E7" stroke-opacity="0.8"/>
<path d="M766.501 363C766.501 330.695 792.912 304.5 825.501 304.5C858.09 304.5 884.501 330.695 884.501 363C884.501 395.305 858.09 421.5 825.501 421.5C792.912 421.5 766.501 395.305 766.501 363Z" stroke="#E7E7E7" stroke-opacity="0.8"/>
<circle cx="1000.5" cy="262.5" r="59" transform="rotate(180 1000.5 262.5)" stroke="#E7E7E7" stroke-opacity="0.8"/>
<circle cx="1000.5" cy="59.5" r="59" transform="rotate(180 1000.5 59.5)" stroke="#E7E7E7" stroke-opacity="0.8"/>
<circle cx="913.5" cy="110.5" r="59" transform="rotate(180 913.5 110.5)" stroke="#E7E7E7" stroke-opacity="0.8"/>
<circle cx="913.5" cy="211.5" r="59" transform="rotate(180 913.5 211.5)" stroke="#E7E7E7" stroke-opacity="0.8"/>
<path d="M1029.5 110.5C1029.5 77.9112 1055.7 51.5 1088 51.5C1120.31 51.5 1146.5 77.9112 1146.5 110.5C1146.5 143.089 1120.31 169.5 1088 169.5C1055.7 169.5 1029.5 143.089 1029.5 110.5Z" stroke="#E7E7E7" stroke-opacity="0.8"/>
<path d="M1029.5 211.5C1029.5 178.911 1055.7 152.5 1088 152.5C1120.31 152.5 1146.5 178.911 1146.5 211.5C1146.5 244.089 1120.31 270.5 1088 270.5C1055.7 270.5 1029.5 244.089 1029.5 211.5Z" stroke="#E7E7E7" stroke-opacity="0.8"/>
<path d="M941.5 161C941.5 128.695 967.912 102.5 1000.5 102.5C1033.09 102.5 1059.5 128.695 1059.5 161C1059.5 193.305 1033.09 219.5 1000.5 219.5C967.912 219.5 941.5 193.305 941.5 161Z" stroke="#E7E7E7" stroke-opacity="0.8"/>
<circle cx="1088.5" cy="514.5" r="59" transform="rotate(180 1088.5 514.5)" stroke="#E7E7E7" stroke-opacity="0.8"/>
<circle cx="1088.5" cy="311.5" r="59" transform="rotate(180 1088.5 311.5)" stroke="#E7E7E7" stroke-opacity="0.8"/>
<circle cx="1001.5" cy="362.5" r="59" transform="rotate(180 1001.5 362.5)" stroke="#E7E7E7" stroke-opacity="0.8"/>
<circle cx="1001.5" cy="463.5" r="59" transform="rotate(180 1001.5 463.5)" stroke="#E7E7E7" stroke-opacity="0.8"/>
<path d="M1117.5 362.5C1117.5 329.911 1143.7 303.5 1176 303.5C1208.3 303.5 1234.5 329.911 1234.5 362.5C1234.5 395.089 1208.3 421.5 1176 421.5C1143.7 421.5 1117.5 395.089 1117.5 362.5Z" stroke="#E7E7E7" stroke-opacity="0.8"/>
<path d="M1117.5 463.5C1117.5 430.911 1143.7 404.5 1176 404.5C1208.3 404.5 1234.5 430.911 1234.5 463.5C1234.5 496.089 1208.3 522.5 1176 522.5C1143.7 522.5 1117.5 496.089 1117.5 463.5Z" stroke="#E7E7E7" stroke-opacity="0.8"/>
<path d="M1029.5 413C1029.5 380.695 1055.91 354.5 1088.5 354.5C1121.09 354.5 1147.5 380.695 1147.5 413C1147.5 445.305 1121.09 471.5 1088.5 471.5C1055.91 471.5 1029.5 445.305 1029.5 413Z" stroke="#E7E7E7" stroke-opacity="0.8"/>
<circle cx="1177.5" cy="768.5" r="59" transform="rotate(180 1177.5 768.5)" stroke="#E7E7E7" stroke-opacity="0.8"/>
<circle cx="1177.5" cy="565.5" r="59" transform="rotate(180 1177.5 565.5)" stroke="#E7E7E7" stroke-opacity="0.8"/>
<circle cx="1090.5" cy="616.5" r="59" transform="rotate(180 1090.5 616.5)" stroke="#E7E7E7" stroke-opacity="0.8"/>
<circle cx="1090.5" cy="717.5" r="59" transform="rotate(180 1090.5 717.5)" stroke="#E7E7E7" stroke-opacity="0.8"/>
<path d="M1206.5 616.5C1206.5 583.911 1232.7 557.5 1265 557.5C1297.3 557.5 1323.5 583.911 1323.5 616.5C1323.5 649.089 1297.3 675.5 1265 675.5C1232.7 675.5 1206.5 649.089 1206.5 616.5Z" stroke="#E7E7E7" stroke-opacity="0.8"/>
<path d="M1206.5 717.5C1206.5 684.911 1232.7 658.5 1265 658.5C1297.3 658.5 1323.5 684.911 1323.5 717.5C1323.5 750.089 1297.3 776.5 1265 776.5C1232.7 776.5 1206.5 750.089 1206.5 717.5Z" stroke="#E7E7E7" stroke-opacity="0.8"/>
<path d="M1118.5 667C1118.5 634.695 1144.91 608.5 1177.5 608.5C1210.09 608.5 1236.5 634.695 1236.5 667C1236.5 699.305 1210.09 725.5 1177.5 725.5C1144.91 725.5 1118.5 699.305 1118.5 667Z" stroke="#E7E7E7" stroke-opacity="0.8"/>
<circle cx="1264.5" cy="309.5" r="59" transform="rotate(180 1264.5 309.5)" stroke="#E7E7E7" stroke-opacity="0.8"/>
<circle cx="1264.5" cy="106.5" r="59" transform="rotate(180 1264.5 106.5)" stroke="#E7E7E7" stroke-opacity="0.8"/>
<circle cx="1177.5" cy="157.5" r="59" transform="rotate(180 1177.5 157.5)" stroke="#E7E7E7" stroke-opacity="0.8"/>
<circle cx="1177.5" cy="258.5" r="59" transform="rotate(180 1177.5 258.5)" stroke="#E7E7E7" stroke-opacity="0.8"/>
<path d="M1293.5 157.5C1293.5 124.911 1319.7 98.5 1352 98.5C1384.3 98.5 1410.5 124.911 1410.5 157.5C1410.5 190.089 1384.3 216.5 1352 216.5C1319.7 216.5 1293.5 190.089 1293.5 157.5Z" stroke="#E7E7E7" stroke-opacity="0.8"/>
<path d="M1293.5 258.5C1293.5 225.911 1319.7 199.5 1352 199.5C1384.3 199.5 1410.5 225.911 1410.5 258.5C1410.5 291.089 1384.3 317.5 1352 317.5C1319.7 317.5 1293.5 291.089 1293.5 258.5Z" stroke="#E7E7E7" stroke-opacity="0.8"/>
<path d="M1205.5 208C1205.5 175.695 1231.91 149.5 1264.5 149.5C1297.09 149.5 1323.5 175.695 1323.5 208C1323.5 240.305 1297.09 266.5 1264.5 266.5C1231.91 266.5 1205.5 240.305 1205.5 208Z" stroke="#E7E7E7" stroke-opacity="0.8"/>
<circle cx="366.5" cy="168.5" r="59" stroke="#E7E7E7" stroke-opacity="0.8"/>
<circle cx="366.5" cy="371.5" r="59" stroke="#E7E7E7" stroke-opacity="0.8"/>
<circle cx="453.5" cy="320.5" r="59" stroke="#E7E7E7" stroke-opacity="0.8"/>
<circle cx="453.5" cy="219.5" r="59" stroke="#E7E7E7" stroke-opacity="0.8"/>
<path d="M337.5 320.5C337.5 353.089 311.305 379.5 279 379.5C246.695 379.5 220.5 353.089 220.5 320.5C220.5 287.911 246.695 261.5 279 261.5C311.305 261.5 337.5 287.911 337.5 320.5Z" stroke="#E7E7E7" stroke-opacity="0.8"/>
<path d="M337.5 219.5C337.5 252.089 311.305 278.5 279 278.5C246.695 278.5 220.5 252.089 220.5 219.5C220.5 186.911 246.695 160.5 279 160.5C311.305 160.5 337.5 186.911 337.5 219.5Z" stroke="#E7E7E7" stroke-opacity="0.8"/>
<path d="M425.5 270C425.5 302.305 399.089 328.5 366.5 328.5C333.911 328.5 307.5 302.305 307.5 270C307.5 237.695 333.911 211.5 366.5 211.5C399.089 211.5 425.5 237.695 425.5 270Z" stroke="#E7E7E7" stroke-opacity="0.8"/>
<circle cx="191.5" cy="370.5" r="59" stroke="#E7E7E7" stroke-opacity="0.8"/>
<circle cx="191.5" cy="573.5" r="59" stroke="#E7E7E7" stroke-opacity="0.8"/>
<circle cx="278.5" cy="522.5" r="59" stroke="#E7E7E7" stroke-opacity="0.8"/>
<circle cx="278.5" cy="421.5" r="59" stroke="#E7E7E7" stroke-opacity="0.8"/>
<path d="M162.5 522.5C162.5 555.089 136.305 581.5 104 581.5C71.6953 581.5 45.5 555.089 45.5 522.5C45.5 489.911 71.6953 463.5 104 463.5C136.305 463.5 162.5 489.911 162.5 522.5Z" stroke="#E7E7E7" stroke-opacity="0.8"/>
<path d="M162.5 421.5C162.5 454.089 136.305 480.5 104 480.5C71.6953 480.5 45.5 454.089 45.5 421.5C45.5 388.911 71.6953 362.5 104 362.5C136.305 362.5 162.5 388.911 162.5 421.5Z" stroke="#E7E7E7" stroke-opacity="0.8"/>
<path d="M250.5 472C250.5 504.305 224.089 530.5 191.5 530.5C158.911 530.5 132.5 504.305 132.5 472C132.5 439.695 158.911 413.5 191.5 413.5C224.089 413.5 250.5 439.695 250.5 472Z" stroke="#E7E7E7" stroke-opacity="0.8"/>
<circle cx="103.5" cy="118.5" r="59" stroke="#E7E7E7" stroke-opacity="0.8"/>
<circle cx="103.5" cy="321.5" r="59" stroke="#E7E7E7" stroke-opacity="0.8"/>
<circle cx="190.5" cy="270.5" r="59" stroke="#E7E7E7" stroke-opacity="0.8"/>
<circle cx="190.5" cy="169.5" r="59" stroke="#E7E7E7" stroke-opacity="0.8"/>
<path d="M74.5 270.5C74.5 303.089 48.3047 329.5 16 329.5C-16.3047 329.5 -42.5 303.089 -42.5 270.5C-42.5 237.911 -16.3047 211.5 16 211.5C48.3047 211.5 74.5 237.911 74.5 270.5Z" stroke="#E7E7E7" stroke-opacity="0.8"/>
<path d="M74.5 169.5C74.5 202.089 48.3047 228.5 16 228.5C-16.3047 228.5 -42.5 202.089 -42.5 169.5C-42.5 136.911 -16.3047 110.5 16 110.5C48.3047 110.5 74.5 136.911 74.5 169.5Z" stroke="#E7E7E7" stroke-opacity="0.8"/>
<path d="M162.5 220C162.5 252.305 136.089 278.5 103.5 278.5C70.9112 278.5 44.5 252.305 44.5 220C44.5 187.695 70.9112 161.5 103.5 161.5C136.089 161.5 162.5 187.695 162.5 220Z" stroke="#E7E7E7" stroke-opacity="0.8"/>
<circle cx="825.501" cy="1174.5" r="59" transform="rotate(180 825.501 1174.5)" stroke="#E7E7E7" stroke-opacity="0.8"/>
<circle cx="825.501" cy="971.5" r="59" transform="rotate(180 825.501 971.5)" stroke="#E7E7E7" stroke-opacity="0.8"/>
<circle cx="738.501" cy="1022.5" r="59" transform="rotate(180 738.501 1022.5)" stroke="#E7E7E7" stroke-opacity="0.8"/>
<circle cx="738.501" cy="1123.5" r="59" transform="rotate(180 738.501 1123.5)" stroke="#E7E7E7" stroke-opacity="0.8"/>
<path d="M854.501 1022.5C854.501 989.911 880.696 963.5 913.001 963.5C945.305 963.5 971.501 989.911 971.501 1022.5C971.501 1055.09 945.305 1081.5 913.001 1081.5C880.696 1081.5 854.501 1055.09 854.501 1022.5Z" stroke="#E7E7E7" stroke-opacity="0.8"/>
<path d="M854.501 1123.5C854.501 1090.91 880.696 1064.5 913.001 1064.5C945.305 1064.5 971.501 1090.91 971.501 1123.5C971.501 1156.09 945.305 1182.5 913.001 1182.5C880.696 1182.5 854.501 1156.09 854.501 1123.5Z" stroke="#E7E7E7" stroke-opacity="0.8"/>
<path d="M766.501 1073C766.501 1040.7 792.912 1014.5 825.501 1014.5C858.09 1014.5 884.501 1040.7 884.501 1073C884.501 1105.3 858.09 1131.5 825.501 1131.5C792.912 1131.5 766.501 1105.3 766.501 1073Z" stroke="#E7E7E7" stroke-opacity="0.8"/>
<circle cx="1000.5" cy="972.5" r="59" transform="rotate(180 1000.5 972.5)" stroke="#E7E7E7" stroke-opacity="0.8"/>
<circle cx="1000.5" cy="769.5" r="59" transform="rotate(180 1000.5 769.5)" stroke="#E7E7E7" stroke-opacity="0.8"/>
<circle cx="913.5" cy="820.5" r="59" transform="rotate(180 913.5 820.5)" stroke="#E7E7E7" stroke-opacity="0.8"/>
<circle cx="913.5" cy="921.5" r="59" transform="rotate(180 913.5 921.5)" stroke="#E7E7E7" stroke-opacity="0.8"/>
<path d="M1029.5 820.5C1029.5 787.911 1055.7 761.5 1088 761.5C1120.31 761.5 1146.5 787.911 1146.5 820.5C1146.5 853.089 1120.31 879.5 1088 879.5C1055.7 879.5 1029.5 853.089 1029.5 820.5Z" stroke="#E7E7E7" stroke-opacity="0.8"/>
<path d="M1029.5 921.5C1029.5 888.911 1055.7 862.5 1088 862.5C1120.31 862.5 1146.5 888.911 1146.5 921.5C1146.5 954.089 1120.31 980.5 1088 980.5C1055.7 980.5 1029.5 954.089 1029.5 921.5Z" stroke="#E7E7E7" stroke-opacity="0.8"/>
<path d="M941.5 871C941.5 838.695 967.912 812.5 1000.5 812.5C1033.09 812.5 1059.5 838.695 1059.5 871C1059.5 903.305 1033.09 929.5 1000.5 929.5C967.912 929.5 941.5 903.305 941.5 871Z" stroke="#E7E7E7" stroke-opacity="0.8"/>
<circle cx="1088.5" cy="1224.5" r="59" transform="rotate(180 1088.5 1224.5)" stroke="#E7E7E7" stroke-opacity="0.8"/>
<circle cx="1088.5" cy="1021.5" r="59" transform="rotate(180 1088.5 1021.5)" stroke="#E7E7E7" stroke-opacity="0.8"/>
<circle cx="1001.5" cy="1072.5" r="59" transform="rotate(180 1001.5 1072.5)" stroke="#E7E7E7" stroke-opacity="0.8"/>
<circle cx="1001.5" cy="1173.5" r="59" transform="rotate(180 1001.5 1173.5)" stroke="#E7E7E7" stroke-opacity="0.8"/>
<path d="M1117.5 1072.5C1117.5 1039.91 1143.7 1013.5 1176 1013.5C1208.3 1013.5 1234.5 1039.91 1234.5 1072.5C1234.5 1105.09 1208.3 1131.5 1176 1131.5C1143.7 1131.5 1117.5 1105.09 1117.5 1072.5Z" stroke="#E7E7E7" stroke-opacity="0.8"/>
<path d="M1117.5 1173.5C1117.5 1140.91 1143.7 1114.5 1176 1114.5C1208.3 1114.5 1234.5 1140.91 1234.5 1173.5C1234.5 1206.09 1208.3 1232.5 1176 1232.5C1143.7 1232.5 1117.5 1206.09 1117.5 1173.5Z" stroke="#E7E7E7" stroke-opacity="0.8"/>
<path d="M1029.5 1123C1029.5 1090.7 1055.91 1064.5 1088.5 1064.5C1121.09 1064.5 1147.5 1090.7 1147.5 1123C1147.5 1155.3 1121.09 1181.5 1088.5 1181.5C1055.91 1181.5 1029.5 1155.3 1029.5 1123Z" stroke="#E7E7E7" stroke-opacity="0.8"/>
<circle cx="1177.5" cy="1478.5" r="59" transform="rotate(180 1177.5 1478.5)" stroke="#E7E7E7" stroke-opacity="0.8"/>
<circle cx="1177.5" cy="1275.5" r="59" transform="rotate(180 1177.5 1275.5)" stroke="#E7E7E7" stroke-opacity="0.8"/>
<circle cx="1090.5" cy="1326.5" r="59" transform="rotate(180 1090.5 1326.5)" stroke="#E7E7E7" stroke-opacity="0.8"/>
<circle cx="1090.5" cy="1427.5" r="59" transform="rotate(180 1090.5 1427.5)" stroke="#E7E7E7" stroke-opacity="0.8"/>
<path d="M1206.5 1326.5C1206.5 1293.91 1232.7 1267.5 1265 1267.5C1297.3 1267.5 1323.5 1293.91 1323.5 1326.5C1323.5 1359.09 1297.3 1385.5 1265 1385.5C1232.7 1385.5 1206.5 1359.09 1206.5 1326.5Z" stroke="#E7E7E7" stroke-opacity="0.8"/>
<path d="M1206.5 1427.5C1206.5 1394.91 1232.7 1368.5 1265 1368.5C1297.3 1368.5 1323.5 1394.91 1323.5 1427.5C1323.5 1460.09 1297.3 1486.5 1265 1486.5C1232.7 1486.5 1206.5 1460.09 1206.5 1427.5Z" stroke="#E7E7E7" stroke-opacity="0.8"/>
<path d="M1118.5 1377C1118.5 1344.7 1144.91 1318.5 1177.5 1318.5C1210.09 1318.5 1236.5 1344.7 1236.5 1377C1236.5 1409.3 1210.09 1435.5 1177.5 1435.5C1144.91 1435.5 1118.5 1409.3 1118.5 1377Z" stroke="#E7E7E7" stroke-opacity="0.8"/>
<circle cx="1264.5" cy="1019.5" r="59" transform="rotate(180 1264.5 1019.5)" stroke="#E7E7E7" stroke-opacity="0.8"/>
<circle cx="1264.5" cy="816.5" r="59" transform="rotate(180 1264.5 816.5)" stroke="#E7E7E7" stroke-opacity="0.8"/>
<circle cx="1177.5" cy="867.5" r="59" transform="rotate(180 1177.5 867.5)" stroke="#E7E7E7" stroke-opacity="0.8"/>
<circle cx="1177.5" cy="968.5" r="59" transform="rotate(180 1177.5 968.5)" stroke="#E7E7E7" stroke-opacity="0.8"/>
<path d="M1293.5 867.5C1293.5 834.911 1319.7 808.5 1352 808.5C1384.3 808.5 1410.5 834.911 1410.5 867.5C1410.5 900.089 1384.3 926.5 1352 926.5C1319.7 926.5 1293.5 900.089 1293.5 867.5Z" stroke="#E7E7E7" stroke-opacity="0.8"/>
<path d="M1293.5 968.5C1293.5 935.911 1319.7 909.5 1352 909.5C1384.3 909.5 1410.5 935.911 1410.5 968.5C1410.5 1001.09 1384.3 1027.5 1352 1027.5C1319.7 1027.5 1293.5 1001.09 1293.5 968.5Z" stroke="#E7E7E7" stroke-opacity="0.8"/>
<path d="M1205.5 918C1205.5 885.695 1231.91 859.5 1264.5 859.5C1297.09 859.5 1323.5 885.695 1323.5 918C1323.5 950.305 1297.09 976.5 1264.5 976.5C1231.91 976.5 1205.5 950.305 1205.5 918Z" stroke="#E7E7E7" stroke-opacity="0.8"/>
<circle cx="366.5" cy="878.5" r="59" stroke="#E7E7E7" stroke-opacity="0.8"/>
<circle cx="366.5" cy="1081.5" r="59" stroke="#E7E7E7" stroke-opacity="0.8"/>
<circle cx="453.5" cy="1030.5" r="59" stroke="#E7E7E7" stroke-opacity="0.8"/>
<circle cx="453.5" cy="929.5" r="59" stroke="#E7E7E7" stroke-opacity="0.8"/>
<path d="M337.5 1030.5C337.5 1063.09 311.305 1089.5 279 1089.5C246.695 1089.5 220.5 1063.09 220.5 1030.5C220.5 997.911 246.695 971.5 279 971.5C311.305 971.5 337.5 997.911 337.5 1030.5Z" stroke="#E7E7E7" stroke-opacity="0.8"/>
<path d="M337.5 929.5C337.5 962.089 311.305 988.5 279 988.5C246.695 988.5 220.5 962.089 220.5 929.5C220.5 896.911 246.695 870.5 279 870.5C311.305 870.5 337.5 896.911 337.5 929.5Z" stroke="#E7E7E7" stroke-opacity="0.8"/>
<path d="M425.5 980C425.5 1012.3 399.089 1038.5 366.5 1038.5C333.911 1038.5 307.5 1012.3 307.5 980C307.5 947.695 333.911 921.5 366.5 921.5C399.089 921.5 425.5 947.695 425.5 980Z" stroke="#E7E7E7" stroke-opacity="0.8"/>
<circle cx="191.5" cy="1080.5" r="59" stroke="#E7E7E7" stroke-opacity="0.8"/>
<circle cx="191.5" cy="1283.5" r="59" stroke="#E7E7E7" stroke-opacity="0.8"/>
<circle cx="278.5" cy="1232.5" r="59" stroke="#E7E7E7" stroke-opacity="0.8"/>
<circle cx="278.5" cy="1131.5" r="59" stroke="#E7E7E7" stroke-opacity="0.8"/>
<path d="M162.5 1232.5C162.5 1265.09 136.305 1291.5 104 1291.5C71.6953 1291.5 45.5 1265.09 45.5 1232.5C45.5 1199.91 71.6953 1173.5 104 1173.5C136.305 1173.5 162.5 1199.91 162.5 1232.5Z" stroke="#E7E7E7" stroke-opacity="0.8"/>
<path d="M162.5 1131.5C162.5 1164.09 136.305 1190.5 104 1190.5C71.6953 1190.5 45.5 1164.09 45.5 1131.5C45.5 1098.91 71.6953 1072.5 104 1072.5C136.305 1072.5 162.5 1098.91 162.5 1131.5Z" stroke="#E7E7E7" stroke-opacity="0.8"/>
<path d="M250.5 1182C250.5 1214.3 224.089 1240.5 191.5 1240.5C158.911 1240.5 132.5 1214.3 132.5 1182C132.5 1149.7 158.911 1123.5 191.5 1123.5C224.089 1123.5 250.5 1149.7 250.5 1182Z" stroke="#E7E7E7" stroke-opacity="0.8"/>
<circle cx="103.5" cy="828.5" r="59" stroke="#E7E7E7" stroke-opacity="0.8"/>
<circle cx="103.5" cy="1031.5" r="59" stroke="#E7E7E7" stroke-opacity="0.8"/>
<circle cx="190.5" cy="980.5" r="59" stroke="#E7E7E7" stroke-opacity="0.8"/>
<circle cx="190.5" cy="879.5" r="59" stroke="#E7E7E7" stroke-opacity="0.8"/>
<path d="M74.5 980.5C74.5 1013.09 48.3047 1039.5 16 1039.5C-16.3047 1039.5 -42.5 1013.09 -42.5 980.5C-42.5 947.911 -16.3047 921.5 16 921.5C48.3047 921.5 74.5 947.911 74.5 980.5Z" stroke="#E7E7E7" stroke-opacity="0.8"/>
<path d="M74.5 879.5C74.5 912.089 48.3047 938.5 16 938.5C-16.3047 938.5 -42.5 912.089 -42.5 879.5C-42.5 846.911 -16.3047 820.5 16 820.5C48.3047 820.5 74.5 846.911 74.5 879.5Z" stroke="#E7E7E7" stroke-opacity="0.8"/>
<path d="M162.5 930C162.5 962.305 136.089 988.5 103.5 988.5C70.9112 988.5 44.5 962.305 44.5 930C44.5 897.695 70.9112 871.5 103.5 871.5C136.089 871.5 162.5 897.695 162.5 930Z" stroke="#E7E7E7" stroke-opacity="0.8"/>
</svg>
