<svg width="732" height="828" viewBox="0 0 732 828" fill="none" xmlns="http://www.w3.org/2000/svg">
<circle cx="146.501" cy="464.5" r="59" transform="rotate(180 146.501 464.5)" stroke="#E7E7E7" stroke-opacity="0.8"/>
<circle cx="146.501" cy="261.5" r="59" transform="rotate(180 146.501 261.5)" stroke="#E7E7E7" stroke-opacity="0.8"/>
<circle cx="59.5008" cy="312.5" r="59" transform="rotate(180 59.5008 312.5)" stroke="#E7E7E7" stroke-opacity="0.8"/>
<circle cx="59.5008" cy="413.5" r="59" transform="rotate(180 59.5008 413.5)" stroke="#E7E7E7" stroke-opacity="0.8"/>
<path d="M175.501 312.5C175.501 279.911 201.696 253.5 234.001 253.5C266.305 253.5 292.501 279.911 292.501 312.5C292.501 345.089 266.305 371.5 234.001 371.5C201.696 371.5 175.501 345.089 175.501 312.5Z" stroke="#E7E7E7" stroke-opacity="0.8"/>
<path d="M175.501 413.5C175.501 380.911 201.696 354.5 234.001 354.5C266.305 354.5 292.501 380.911 292.501 413.5C292.501 446.089 266.305 472.5 234.001 472.5C201.696 472.5 175.501 446.089 175.501 413.5Z" stroke="#E7E7E7" stroke-opacity="0.8"/>
<path d="M87.5008 363C87.5008 330.695 113.912 304.5 146.501 304.5C179.09 304.5 205.501 330.695 205.501 363C205.501 395.305 179.09 421.5 146.501 421.5C113.912 421.5 87.5008 395.305 87.5008 363Z" stroke="#E7E7E7" stroke-opacity="0.8"/>
<circle cx="321.501" cy="262.5" r="59" transform="rotate(180 321.501 262.5)" stroke="#E7E7E7" stroke-opacity="0.8"/>
<circle cx="321.501" cy="59.5" r="59" transform="rotate(180 321.501 59.5)" stroke="#E7E7E7" stroke-opacity="0.8"/>
<circle cx="234.501" cy="110.5" r="59" transform="rotate(180 234.501 110.5)" stroke="#E7E7E7" stroke-opacity="0.8"/>
<circle cx="234.501" cy="211.5" r="59" transform="rotate(180 234.501 211.5)" stroke="#E7E7E7" stroke-opacity="0.8"/>
<path d="M350.501 110.5C350.501 77.9112 376.696 51.5 409.001 51.5C441.305 51.5 467.501 77.9112 467.501 110.5C467.501 143.089 441.305 169.5 409.001 169.5C376.696 169.5 350.501 143.089 350.501 110.5Z" stroke="#E7E7E7" stroke-opacity="0.8"/>
<path d="M350.501 211.5C350.501 178.911 376.696 152.5 409.001 152.5C441.305 152.5 467.501 178.911 467.501 211.5C467.501 244.089 441.305 270.5 409.001 270.5C376.696 270.5 350.501 244.089 350.501 211.5Z" stroke="#E7E7E7" stroke-opacity="0.8"/>
<path d="M262.501 161C262.501 128.695 288.912 102.5 321.501 102.5C354.089 102.5 380.501 128.695 380.501 161C380.501 193.305 354.089 219.5 321.501 219.5C288.912 219.5 262.501 193.305 262.501 161Z" stroke="#E7E7E7" stroke-opacity="0.8"/>
<circle cx="409.5" cy="514.5" r="59" transform="rotate(180 409.5 514.5)" stroke="#E7E7E7" stroke-opacity="0.8"/>
<circle cx="409.5" cy="311.5" r="59" transform="rotate(180 409.5 311.5)" stroke="#E7E7E7" stroke-opacity="0.8"/>
<circle cx="322.5" cy="362.5" r="59" transform="rotate(180 322.5 362.5)" stroke="#E7E7E7" stroke-opacity="0.8"/>
<circle cx="322.5" cy="463.5" r="59" transform="rotate(180 322.5 463.5)" stroke="#E7E7E7" stroke-opacity="0.8"/>
<path d="M438.5 362.5C438.5 329.911 464.696 303.5 497 303.5C529.305 303.5 555.5 329.911 555.5 362.5C555.5 395.089 529.305 421.5 497 421.5C464.696 421.5 438.5 395.089 438.5 362.5Z" stroke="#E7E7E7" stroke-opacity="0.8"/>
<path d="M438.5 463.5C438.5 430.911 464.696 404.5 497 404.5C529.305 404.5 555.5 430.911 555.5 463.5C555.5 496.089 529.305 522.5 497 522.5C464.696 522.5 438.5 496.089 438.5 463.5Z" stroke="#E7E7E7" stroke-opacity="0.8"/>
<path d="M350.5 413C350.5 380.695 376.912 354.5 409.5 354.5C442.089 354.5 468.5 380.695 468.5 413C468.5 445.305 442.089 471.5 409.5 471.5C376.912 471.5 350.5 445.305 350.5 413Z" stroke="#E7E7E7" stroke-opacity="0.8"/>
<circle cx="498.5" cy="768.5" r="59" transform="rotate(180 498.5 768.5)" stroke="#E7E7E7" stroke-opacity="0.8"/>
<circle cx="498.5" cy="565.5" r="59" transform="rotate(180 498.5 565.5)" stroke="#E7E7E7" stroke-opacity="0.8"/>
<circle cx="411.5" cy="616.5" r="59" transform="rotate(180 411.5 616.5)" stroke="#E7E7E7" stroke-opacity="0.8"/>
<circle cx="411.5" cy="717.5" r="59" transform="rotate(180 411.5 717.5)" stroke="#E7E7E7" stroke-opacity="0.8"/>
<path d="M527.5 616.5C527.5 583.911 553.696 557.5 586 557.5C618.305 557.5 644.5 583.911 644.5 616.5C644.5 649.089 618.305 675.5 586 675.5C553.696 675.5 527.5 649.089 527.5 616.5Z" stroke="#E7E7E7" stroke-opacity="0.8"/>
<path d="M527.5 717.5C527.5 684.911 553.696 658.5 586 658.5C618.305 658.5 644.5 684.911 644.5 717.5C644.5 750.089 618.305 776.5 586 776.5C553.696 776.5 527.5 750.089 527.5 717.5Z" stroke="#E7E7E7" stroke-opacity="0.8"/>
<path d="M439.5 667C439.5 634.695 465.912 608.5 498.5 608.5C531.089 608.5 557.5 634.695 557.5 667C557.5 699.305 531.089 725.5 498.5 725.5C465.912 725.5 439.5 699.305 439.5 667Z" stroke="#E7E7E7" stroke-opacity="0.8"/>
<circle cx="585.5" cy="309.5" r="59" transform="rotate(180 585.5 309.5)" stroke="#E7E7E7" stroke-opacity="0.8"/>
<circle cx="585.5" cy="106.5" r="59" transform="rotate(180 585.5 106.5)" stroke="#E7E7E7" stroke-opacity="0.8"/>
<circle cx="498.5" cy="157.5" r="59" transform="rotate(180 498.5 157.5)" stroke="#E7E7E7" stroke-opacity="0.8"/>
<circle cx="498.5" cy="258.5" r="59" transform="rotate(180 498.5 258.5)" stroke="#E7E7E7" stroke-opacity="0.8"/>
<path d="M614.5 157.5C614.5 124.911 640.695 98.5 673 98.5C705.305 98.5 731.5 124.911 731.5 157.5C731.5 190.089 705.305 216.5 673 216.5C640.695 216.5 614.5 190.089 614.5 157.5Z" stroke="#E7E7E7" stroke-opacity="0.8"/>
<path d="M614.5 258.5C614.5 225.911 640.695 199.5 673 199.5C705.305 199.5 731.5 225.911 731.5 258.5C731.5 291.089 705.305 317.5 673 317.5C640.695 317.5 614.5 291.089 614.5 258.5Z" stroke="#E7E7E7" stroke-opacity="0.8"/>
<path d="M526.5 208C526.5 175.695 552.911 149.5 585.5 149.5C618.089 149.5 644.5 175.695 644.5 208C644.5 240.305 618.089 266.5 585.5 266.5C552.911 266.5 526.5 240.305 526.5 208Z" stroke="#E7E7E7" stroke-opacity="0.8"/>
</svg>
