<svg width="513" height="574" viewBox="0 0 513 574" fill="none" xmlns="http://www.w3.org/2000/svg">
<circle cx="366.5" cy="109.5" r="59" stroke="#E7E7E7" stroke-opacity="0.8"/>
<circle cx="366.5" cy="312.5" r="59" stroke="#E7E7E7" stroke-opacity="0.8"/>
<circle cx="453.5" cy="261.5" r="59" stroke="#E7E7E7" stroke-opacity="0.8"/>
<circle cx="453.5" cy="160.5" r="59" stroke="#E7E7E7" stroke-opacity="0.8"/>
<path d="M337.5 261.5C337.5 294.089 311.305 320.5 279 320.5C246.695 320.5 220.5 294.089 220.5 261.5C220.5 228.911 246.695 202.5 279 202.5C311.305 202.5 337.5 228.911 337.5 261.5Z" stroke="#E7E7E7" stroke-opacity="0.8"/>
<path d="M337.5 160.5C337.5 193.089 311.305 219.5 279 219.5C246.695 219.5 220.5 193.089 220.5 160.5C220.5 127.911 246.695 101.5 279 101.5C311.305 101.5 337.5 127.911 337.5 160.5Z" stroke="#E7E7E7" stroke-opacity="0.8"/>
<path d="M425.5 211C425.5 243.305 399.089 269.5 366.5 269.5C333.911 269.5 307.5 243.305 307.5 211C307.5 178.695 333.911 152.5 366.5 152.5C399.089 152.5 425.5 178.695 425.5 211Z" stroke="#E7E7E7" stroke-opacity="0.8"/>
<circle cx="191.5" cy="311.5" r="59" stroke="#E7E7E7" stroke-opacity="0.8"/>
<circle cx="191.5" cy="514.5" r="59" stroke="#E7E7E7" stroke-opacity="0.8"/>
<circle cx="278.5" cy="463.5" r="59" stroke="#E7E7E7" stroke-opacity="0.8"/>
<circle cx="278.5" cy="362.5" r="59" stroke="#E7E7E7" stroke-opacity="0.8"/>
<path d="M162.5 463.5C162.5 496.089 136.305 522.5 104 522.5C71.6953 522.5 45.5 496.089 45.5 463.5C45.5 430.911 71.6953 404.5 104 404.5C136.305 404.5 162.5 430.911 162.5 463.5Z" stroke="#E7E7E7" stroke-opacity="0.8"/>
<path d="M162.5 362.5C162.5 395.089 136.305 421.5 104 421.5C71.6953 421.5 45.5 395.089 45.5 362.5C45.5 329.911 71.6953 303.5 104 303.5C136.305 303.5 162.5 329.911 162.5 362.5Z" stroke="#E7E7E7" stroke-opacity="0.8"/>
<path d="M250.5 413C250.5 445.305 224.089 471.5 191.5 471.5C158.911 471.5 132.5 445.305 132.5 413C132.5 380.695 158.911 354.5 191.5 354.5C224.089 354.5 250.5 380.695 250.5 413Z" stroke="#E7E7E7" stroke-opacity="0.8"/>
<circle cx="103.5" cy="59.4999" r="59" stroke="#E7E7E7" stroke-opacity="0.8"/>
<circle cx="103.5" cy="262.5" r="59" stroke="#E7E7E7" stroke-opacity="0.8"/>
<circle cx="190.5" cy="211.5" r="59" stroke="#E7E7E7" stroke-opacity="0.8"/>
<circle cx="190.5" cy="110.5" r="59" stroke="#E7E7E7" stroke-opacity="0.8"/>
<path d="M74.5 211.5C74.5 244.089 48.3047 270.5 16 270.5C-16.3047 270.5 -42.5 244.089 -42.5 211.5C-42.5 178.911 -16.3047 152.5 16 152.5C48.3047 152.5 74.5 178.911 74.5 211.5Z" stroke="#E7E7E7" stroke-opacity="0.8"/>
<path d="M74.5 110.5C74.5 143.089 48.3047 169.5 16 169.5C-16.3047 169.5 -42.5 143.089 -42.5 110.5C-42.5 77.9112 -16.3047 51.4999 16 51.4999C48.3047 51.4999 74.5 77.9112 74.5 110.5Z" stroke="#E7E7E7" stroke-opacity="0.8"/>
<path d="M162.5 161C162.5 193.305 136.089 219.5 103.5 219.5C70.9112 219.5 44.5 193.305 44.5 161C44.5 128.695 70.9112 102.5 103.5 102.5C136.089 102.5 162.5 128.695 162.5 161Z" stroke="#E7E7E7" stroke-opacity="0.8"/>
</svg>
