<svg width="14" height="14" viewBox="0 0 14 14" fill="none" xmlns="http://www.w3.org/2000/svg">
<path fill-rule="evenodd" clip-rule="evenodd" d="M0.165204 6.60477C0.802146 7.3404 2.11371 9.01349 2.26442 9.82088C2.07465 9.48989 1.64356 8.80837 1.43731 8.73025C1.73268 9.11564 2.31163 10.0562 2.26442 10.7352C2.36747 11.5772 3.00308 13.2735 4.72114 13.3225C6.86871 13.3839 8.07544 11.1034 8.22884 9.9887C8.38224 8.874 8.36178 8.11724 8.3311 8.03543C8.30042 7.95361 8.65835 8.12747 8.74016 8.59789C8.82198 9.06831 8.80152 9.45692 9.12877 9.72281C9.45602 9.98869 9.93667 10.3057 10.1105 10.1932C10.2496 10.1032 10.2776 9.92393 10.2741 9.84552C10.4127 9.92028 10.7252 10.0673 10.8668 10.0571C11.0437 10.0445 11.6821 9.93834 11.9855 9.72281C11.8885 9.83425 11.5481 10.0951 10.9616 10.2468C11.3155 10.2531 12.1763 10.0786 12.7882 9.3303C13.5529 8.39488 14.1165 7.3854 13.5274 5.62785C13.3021 5.3124 12.6274 4.70659 11.7312 4.80702C10.611 4.93256 9.09491 5.31884 8.95006 7.98413L8.91835 8.03543C8.78108 7.93925 8.45999 7.74094 8.27378 7.71707C8.14048 7.08642 7.54564 6.02087 6.23261 6.80392L6.19083 6.75617C6.41622 6.3534 6.82637 5.39969 6.66387 4.80702C6.46075 4.06619 6.40606 4.00369 5.56231 3.64431C5.37741 3.58962 4.89981 3.5365 4.46856 3.7615C4.1196 3.90733 3.37793 4.23025 3.20293 4.35525C3.02793 4.48025 2.64564 4.70851 2.47637 4.80702C2.367 4.85956 2.04825 4.97556 1.64825 5.01931H1.49981C1.68991 5.11827 2.11075 5.39119 2.27325 5.69119C2.41127 5.91775 2.70918 6.39744 2.79668 6.50369C2.90606 6.6365 3.00762 6.67556 3.04668 6.64431C3.08575 6.61306 4.07793 5.23806 4.27325 5.06619C4.46856 4.89431 4.85137 4.574 5.07793 4.5115C5.3045 4.449 5.492 4.49587 5.56231 4.69119C5.63262 4.8865 5.83575 5.35525 5.47637 5.8865C5.117 6.41775 4.66387 6.61058 4.46856 6.68337C4.27325 6.75617 4.04668 6.80056 4.02325 7.15994C3.98426 7.42054 3.96251 8.03907 4.18742 8.42841C4.46856 8.91508 5.07228 8.73811 5.1418 8.71283C5.21133 8.68755 5.59055 8.20981 5.85601 7.98413C6.12146 7.75845 6.55757 7.61308 6.69662 7.62572C6.83567 7.63836 7.07584 7.75845 7.05688 8.52322C7.03792 9.28798 6.50069 10.571 5.21133 11.1588C5.07439 11.2305 4.66777 11.3573 4.13686 11.2915C3.47322 11.2094 3.33417 10.4699 3.16352 10.0212C2.99287 9.5724 2.79689 8.74327 1.89696 7.98413C1.5288 7.65897 0.724998 6.95816 0.455017 6.75617L0.165204 6.60477ZM12.2266 8.30469C11.6266 9.39844 10.7109 9.64062 10.3281 9.625C10.3151 9.50781 10.2906 9.22813 10.2969 9.04688C10.3031 8.86562 10.1927 8.55729 10.1367 8.42578C10.0492 7.94141 10.1393 7.5651 10.1953 7.4375C10.5156 6.63281 11.0469 6.55469 11.2188 6.48438C11.3906 6.41406 12.1328 6.25 12.3594 6.84375C12.5406 7.31875 12.3464 8.01563 12.2266 8.30469Z" fill="black"/>
<path d="M6.14062 2.55469C6.36458 2.88021 6.99375 3.56719 7.71875 3.71094C8.625 3.89062 9.22656 3.64062 9.42969 3.52344C9.63281 3.40625 9.94531 3.03125 10.0078 2.82031C10.0703 2.60937 10.1328 2.4375 10.3203 2.35938C10.5078 2.28125 11.2734 2.23438 11.4219 2.48438C11.5703 2.73438 11.5 3.30235 10.6953 4.05469C9.89062 4.80702 8.60156 5.17188 7.53125 4.63281C6.675 4.20156 6.30469 3.55729 6.22656 3.28906C6.39453 3.51302 6.79219 3.99219 7.03906 4.11719C6.84115 3.94531 6.38438 3.41094 6.14062 2.64844V2.55469Z" fill="black"/>
<path d="M8.69531 2.64844C8.63281 2.64844 8.24219 2.625 7.9375 2.10156C7.63281 1.57812 7.67188 1.23438 7.64844 1.10938C7.625 0.984375 7.60156 0.882812 7.4375 0.835937C7.30625 0.798437 7.20052 0.794271 7.16406 0.796875L7.21875 0.71875C7.29948 0.692708 7.47969 0.65625 7.55469 0.71875L7.67188 0.773438L7.72656 0.796875L7.70703 0.71875C7.64974 0.679687 7.51562 0.600781 7.4375 0.597656V0.570312H7.78125C8.09115 0.588542 8.81016 0.802344 9.20703 1.51172C9.25391 1.72396 9.29453 2.20859 9.08203 2.44922C9.05425 2.50332 8.9591 2.61421 8.80078 2.625C8.64246 2.63579 8.6645 2.64512 8.69531 2.64844Z" fill="black"/>
</svg>
